<?xml version="1.0" encoding="utf-8"?>
<!-- Generator: Adobe Illustrator 16.0.0, SVG Export Plug-In . SVG Version: 6.00 Build 0)  -->
<!DOCTYPE svg PUBLIC "-//W3C//DTD SVG 1.1//EN" "http://www.w3.org/Graphics/SVG/1.1/DTD/svg11.dtd">
<svg version="1.1" id="Layer_1" xmlns="http://www.w3.org/2000/svg" xmlns:xlink="http://www.w3.org/1999/xlink" x="0px" y="0px"
	 width="450.191px" height="110.771px" viewBox="0 0 450.191 110.771" enable-background="new 0 0 450.191 110.771"
	 xml:space="preserve">
<g id="EDITABLE_TYPE">
	<g>
		<path fill="#6C6D6D" d="M181.311,63.064c0,7.561-2.1,13.341-6.296,17.338c-4.198,4-10.244,5.999-18.139,5.999h-12.812V40.604
			h14.159c7.288,0,12.958,1.963,17.01,5.891C179.285,50.419,181.311,55.943,181.311,63.064z M173.417,63.315
			c0-10.964-5.127-16.445-15.381-16.445h-6.483v33.236h5.324C167.903,80.105,173.417,74.509,173.417,63.315z"/>
		<path fill="#6C6D6D" d="M201.645,87.028c-5.389,0-9.603-1.57-12.641-4.714c-3.037-3.143-4.558-7.471-4.558-12.983
			c0-5.659,1.41-10.107,4.229-13.346c2.818-3.236,6.692-4.854,11.621-4.854c4.574,0,8.188,1.389,10.84,4.166
			c2.651,2.778,3.979,6.6,3.979,11.465v3.979h-23.087c0.104,3.361,1.013,5.946,2.726,7.753s4.124,2.709,7.236,2.709
			c2.046,0,3.952-0.193,5.717-0.58c1.766-0.387,3.66-1.028,5.687-1.926v5.982c-1.796,0.857-3.613,1.462-5.451,1.817
			C206.104,86.851,204.005,87.028,201.645,87.028z M200.298,56.705c-2.339,0-4.213,0.742-5.623,2.224
			c-1.409,1.483-2.25,3.646-2.521,6.484h15.726c-0.042-2.861-0.73-5.028-2.067-6.5C204.475,57.441,202.637,56.705,200.298,56.705z"
			/>
		<path fill="#6C6D6D" d="M227.523,86.402l-13.157-34.646h7.77l7.048,20.142c1.211,3.384,1.941,6.12,2.192,8.208h0.25
			c0.188-1.504,0.919-4.238,2.193-8.208l7.049-20.142h7.83L235.48,86.402H227.523z"/>
		<path fill="#6C6D6D" d="M265.243,87.028c-5.388,0-9.601-1.57-12.64-4.714c-3.038-3.143-4.559-7.471-4.559-12.983
			c0-5.659,1.409-10.107,4.229-13.346c2.819-3.236,6.693-4.854,11.622-4.854c4.573,0,8.187,1.389,10.839,4.166
			c2.651,2.778,3.979,6.6,3.979,11.465v3.979h-23.087c0.104,3.361,1.014,5.946,2.726,7.753c1.713,1.807,4.125,2.709,7.235,2.709
			c2.048,0,3.952-0.193,5.718-0.58c1.765-0.387,3.66-1.028,5.687-1.926v5.982c-1.797,0.857-3.613,1.462-5.451,1.817
			C269.702,86.851,267.604,87.028,265.243,87.028z M263.896,56.705c-2.339,0-4.213,0.742-5.623,2.224
			c-1.409,1.483-2.25,3.646-2.521,6.484h15.727c-0.042-2.861-0.731-5.028-2.067-6.5C268.073,57.441,266.235,56.705,263.896,56.705z"
			/>
		<path fill="#6C6D6D" d="M290.589,86.402h-7.36V37.659h7.36V86.402z"/>
		<path fill="#6C6D6D" d="M327.996,69.016c0,5.66-1.451,10.077-4.354,13.251s-6.943,4.761-12.123,4.761
			c-3.237,0-6.099-0.73-8.583-2.192c-2.485-1.461-4.396-3.561-5.732-6.296c-1.337-2.735-2.005-5.91-2.005-9.523
			c0-5.618,1.44-10.003,4.323-13.157c2.882-3.152,6.943-4.729,12.187-4.729c5.012,0,8.979,1.613,11.902,4.839
			S327.996,63.545,327.996,69.016z M302.779,69.016c0,7.999,2.954,11.998,8.865,11.998c5.847,0,8.771-3.999,8.771-11.998
			c0-7.915-2.944-11.873-8.834-11.873c-3.092,0-5.33,1.023-6.72,3.07C303.473,62.261,302.779,65.194,302.779,69.016z"/>
		<path fill="#6C6D6D" d="M350.178,87.028c-4.386,0-7.789-1.576-10.212-4.729h-0.438c0.292,2.924,0.438,4.699,0.438,5.325v14.189
			h-7.361V51.756h5.952c0.167,0.646,0.512,2.192,1.033,4.636h0.376c2.297-3.509,5.742-5.263,10.338-5.263
			c4.322,0,7.689,1.565,10.103,4.699c2.412,3.132,3.618,7.528,3.618,13.188c0,5.66-1.228,10.077-3.681,13.251
			C357.89,85.441,354.502,87.028,350.178,87.028z M348.393,57.144c-2.924,0-5.06,0.856-6.406,2.569
			c-1.347,1.712-2.021,4.448-2.021,8.208v1.096c0,4.219,0.668,7.273,2.005,9.163c1.336,1.892,3.519,2.835,6.547,2.835
			c2.548,0,4.512-1.044,5.89-3.132s2.067-5.064,2.067-8.928c0-3.885-0.685-6.824-2.052-8.818
			C353.055,58.141,351.046,57.144,348.393,57.144z"/>
		<path fill="#6C6D6D" d="M383.856,87.028c-5.388,0-9.601-1.57-12.64-4.714c-3.038-3.143-4.559-7.471-4.559-12.983
			c0-5.659,1.409-10.107,4.229-13.346c2.818-3.236,6.692-4.854,11.622-4.854c4.572,0,8.187,1.389,10.839,4.166
			c2.651,2.778,3.979,6.6,3.979,11.465v3.979H374.24c0.104,3.361,1.014,5.946,2.726,7.753c1.713,1.807,4.125,2.709,7.235,2.709
			c2.047,0,3.952-0.193,5.717-0.58c1.766-0.387,3.66-1.028,5.688-1.926v5.982c-1.797,0.857-3.613,1.462-5.451,1.817
			C388.315,86.851,386.218,87.028,383.856,87.028z M382.51,56.705c-2.339,0-4.213,0.742-5.623,2.224
			c-1.409,1.483-2.25,3.646-2.521,6.484h15.727c-0.042-2.861-0.731-5.028-2.067-6.5C386.687,57.441,384.849,56.705,382.51,56.705z"
			/>
		<path fill="#6C6D6D" d="M419.416,51.129c1.482,0,2.704,0.104,3.666,0.312l-0.722,6.86c-1.045-0.25-2.131-0.376-3.258-0.376
			c-2.945,0-5.331,0.961-7.158,2.882c-1.828,1.922-2.741,4.417-2.741,7.487v18.105h-7.36V51.756h5.764l0.972,6.108h0.376
			c1.147-2.067,2.646-3.707,4.495-4.918C415.297,51.735,417.285,51.129,419.416,51.129z"/>
		<path fill="#6C6D6D" d="M448.929,76.534c0,3.383-1.232,5.979-3.697,7.784c-2.464,1.808-5.993,2.709-10.588,2.709
			c-4.615,0-8.322-0.698-11.12-2.099V78.57c4.072,1.881,7.862,2.819,11.371,2.819c4.531,0,6.798-1.368,6.798-4.104
			c0-0.877-0.251-1.608-0.752-2.193c-0.501-0.584-1.326-1.19-2.475-1.817c-1.149-0.626-2.747-1.336-4.793-2.13
			c-3.989-1.545-6.688-3.091-8.099-4.636c-1.409-1.545-2.114-3.55-2.114-6.015c0-2.965,1.195-5.269,3.587-6.907
			s5.644-2.459,9.759-2.459c4.072,0,7.925,0.825,11.559,2.475l-2.381,5.544c-3.738-1.545-6.881-2.317-9.429-2.317
			c-3.886,0-5.826,1.106-5.826,3.319c0,1.086,0.506,2.006,1.519,2.758c1.014,0.751,3.223,1.785,6.627,3.101
			c2.859,1.107,4.938,2.12,6.232,3.039s2.256,1.979,2.882,3.18C448.615,73.428,448.929,74.865,448.929,76.534z"/>
	</g>
</g>
<path fill="#666666" d="M237.408,15.135c0.491-0.208,0.535-0.246,0.343-0.765c-1.024-2.932-4.896-4.521-8.208-3.142
	c-2.598,1.085-4.485,3.835-4.485,6.924c0,4.153,2.986,7.843,7.068,7.843c1.858,0,3.188-0.255,4.372-1
	c0.254-0.239,1.676-1.391,1.701-1.634c0-0.062-0.211,0.116-0.513,0.293c-0.926,0.487-2.312,0.673-3.385,0.691
	c-2.185,0.043-3.942-1.456-5.077-3.215c-0.745-1.146-1.207-2.451-1.32-3.848c-0.19-2.145,0.339-4.621,2.757-5.229
	c1.631-0.41,3.153,0.493,3.753,2.049c0.268,0.725,0.105,1.083-0.548,1.345l-5.838,2.452l1.985,0.125
	C232.391,17.037,235.038,16.117,237.408,15.135"/>
<path fill="#666666" d="M219.428,3.156h4.358c-0.601,0.395-0.806,0.559-1.068,0.964c-0.19,0.294-0.236,0.864-0.279,1.36
	c-0.242,5.834-0.096,11.695-0.137,17.525c0.033,1.592,0.651,1.401,2.718,1.34c-0.312,0.269-0.812,0.78-1.197,1.01
	c-1.873,0-3.646-0.034-5.512-0.034c0.697-0.73,1.063-1.204,1.017-3.013c0.03-6.079-0.206-11.923,0.17-17.782
	c-0.871,0.021-1.67,0.007-2.55,0.035C217.785,4.139,218.56,3.541,219.428,3.156"/>
<path fill="#666666" d="M164.34,8.692l2.271-2.335c-3.864-3.19-10.494-3.607-14.888-1.39c-3.818,1.938-6.599,5.771-6.729,10.055
	c-0.156,4.497,2.485,8.074,5.139,9.858c4.392,2.964,11.999,2.313,16.585-0.011l-0.018-0.425h0.018v-4.72l1.062-1.257h-6.675
	l-2.479,1.396l4.809-0.141v4.156c0,0.598,0.008,0.682-0.97,0.999c-1.369,0.366-2.913,0.441-4.327,0.32
	c-4.798-0.407-8.449-4.199-9.317-8.918c-0.833-4.493,1.295-8.738,4.869-10.481c1.745-0.854,3.843-1.263,6.117-0.528
	c1.418,0.444,2.717,1.275,3.842,2.405l-0.788,1.411L164.34,8.692z"/>
<g id="MARK">
	<g>
		<g>
			
				<radialGradient id="SVGID_1_" cx="-742.5798" cy="1420.303" r="81.9314" gradientTransform="matrix(1 0 0 -1 827.8599 1414.9868)" gradientUnits="userSpaceOnUse">
				<stop  offset="0" style="stop-color:#0DA960"/>
				<stop  offset="1" style="stop-color:#03914B"/>
			</radialGradient>
			<path fill="url(#SVGID_1_)" d="M101.652,66.299c1.193,1.973,1.218,5.085,0.188,7.226l14.223-23.688
				c1.271-2.122,1.271-5.583,0-7.696L93.078,3.848C91.802,1.738,88.741,0,86.273,0H66.238c-2.464,0-3.446,1.737-2.175,3.848
				l14.31,23.825c0.087,0.12,0.21,0.228,0.285,0.339L101.652,66.299z"/>
			
				<radialGradient id="SVGID_2_" cx="-739.8323" cy="1368.9504" r="60.7732" gradientTransform="matrix(1 0 0 -1 827.8599 1414.9868)" gradientUnits="userSpaceOnUse">
				<stop  offset="0" style="stop-color:#FFCD4D"/>
				<stop  offset="1" style="stop-color:#F6C338"/>
			</radialGradient>
			<path fill="url(#SVGID_2_)" d="M66.238,91.964h20.035c2.468,0,5.528-1.724,6.805-3.85l8.764-14.591
				c1.029-2.14,1.005-5.252-0.188-7.226l-14.59-24.16c1.266,2.113,1.266,5.574,0,7.696L72.835,73.506
				c-0.074,0.159-0.108,0.343-0.188,0.491l-8.734,14.538C63.02,90.448,63.94,91.964,66.238,91.964z"/>
			
				<linearGradient id="SVGID_3_" gradientUnits="userSpaceOnUse" x1="-720.6228" y1="1357.1565" x2="-746.4947" y2="1357.1565" gradientTransform="matrix(1 0 0 -1 827.8599 1414.9868)">
				<stop  offset="0" style="stop-color:#231F20;stop-opacity:0.2"/>
				<stop  offset="1" style="stop-color:#F1F2F2;stop-opacity:0.25"/>
			</linearGradient>
			<path fill="url(#SVGID_3_)" d="M101.652,66.299l-14.59-24.16c1.266,2.113,1.266,5.574,0,7.696l-5.139,8.561l19.917,15.129
				C102.871,71.384,102.845,68.272,101.652,66.299z"/>
		</g>
		<g>
			
				<radialGradient id="SVGID_4_" cx="-760.5334" cy="1676.9719" r="81.9354" gradientTransform="matrix(-1 0 0 1 -728.7915 -1579.6914)" gradientUnits="userSpaceOnUse">
				<stop  offset="0" style="stop-color:#4387FD"/>
				<stop  offset="1" style="stop-color:#4683EA"/>
			</radialGradient>
			<path fill="url(#SVGID_4_)" d="M15.365,25.665c-1.18-1.976-1.219-5.088-0.181-7.228L0.952,42.13c-1.27,2.122-1.27,5.583,0,7.698
				l23,38.286c1.269,2.113,4.332,3.85,6.791,3.85h20.036c2.472,0,3.455-1.736,2.183-3.85L38.645,64.292
				c-0.08-0.123-0.21-0.229-0.281-0.342L15.365,25.665z"/>
			
				<radialGradient id="SVGID_5_" cx="-757.7854" cy="1625.6223" r="60.7721" gradientTransform="matrix(-1 0 0 1 -728.7915 -1579.6914)" gradientUnits="userSpaceOnUse">
				<stop  offset="0" style="stop-color:#E04A3F"/>
				<stop  offset="1" style="stop-color:#CD372D"/>
			</radialGradient>
			<path fill="url(#SVGID_5_)" d="M50.779,0H30.744c-2.459,0-5.522,1.726-6.791,3.848l-8.769,14.59
				c-1.038,2.14-0.999,5.252,0.181,7.228l14.599,24.163c-1.271-2.115-1.271-5.577,0-7.698l14.223-23.674
				c0.069-0.158,0.105-0.34,0.197-0.492l8.729-14.535C54.006,1.518,53.077,0,50.779,0z"/>
			
				<linearGradient id="SVGID_6_" gradientUnits="userSpaceOnUse" x1="-738.5754" y1="1613.8254" x2="-764.451" y2="1613.8254" gradientTransform="matrix(-1 0 0 1 -728.7915 -1579.6914)">
				<stop  offset="0" style="stop-color:#231F20;stop-opacity:0.2"/>
				<stop  offset="1" style="stop-color:#F1F2F2;stop-opacity:0.25"/>
			</linearGradient>
			<path fill="url(#SVGID_6_)" d="M15.365,25.665l14.599,24.163c-1.271-2.115-1.271-5.577,0-7.698l5.139-8.558L15.184,18.438
				C14.146,20.577,14.185,23.69,15.365,25.665z"/>
		</g>
	</g>
</g>
<path fill="#666666" d="M214.997,25.28c-0.957-0.717-2.623-1.703-2.519-3.064c0.035-0.46,0.379-0.957,1.021-1.341
	c1.158-0.669,1.943-1.558,2.332-2.591c0.404-1.085,0.346-2.275-0.054-3.351c-0.381-1.002-1.062-1.916-1.962-2.532h2.117l1.869-1.205
	c-2.658-0.027-5.179-0.027-7.882-0.026c-2.609,0-4.961,1.269-6.02,3.534c-0.484,1.042-0.678,2.385-0.374,3.653
	c0.62,2.523,3.247,4.188,5.803,3.802c0.282-0.039,0.373-0.125,0.219,0.127c-0.56,0.992-0.144,2.472,0.957,3.188
	c-0.724-0.043-1.516-0.058-2.393,0.04c-3.112,0.37-6.569,1.976-6.387,5.333c0.133,2.613,2.774,4.535,6.945,4.537
	c3.37-0.002,6.526-1.076,7.854-3.447C217.927,29.435,217.106,26.85,214.997,25.28z M206.574,17.816
	c-0.741-2.856,0.012-4.667,1.775-5.213c2.08-0.658,4.306,1.229,4.812,4.305c0.337,2.015-0.179,3.927-2.001,4.439
	C209.291,21.863,207.234,20.404,206.574,17.816z M214.843,31.09c-0.179,1.583-1.705,2.82-4.291,2.974
	c-2.778,0.172-6.501-0.922-5.812-4.566c0.373-1.942,2.951-2.938,5.067-3.006c0.603-0.018,1.191,0.024,1.777,0.042
	c0.318,0.229,0.654,0.447,0.982,0.671C214.405,28.364,214.996,29.778,214.843,31.09z"/>
<path fill="#666666" d="M201.93,17.998c-0.229-3.902-2.846-7.23-7.85-7.23c-4.327,0-7.871,3.374-7.871,7.516
	c0,4.745,4.12,7.989,8.83,7.482C198.952,25.354,202.163,21.88,201.93,17.998z M195.666,24.703c-2.631,0.595-5.422-1.577-6.107-5.269
	c-0.769-4.059,0.491-6.735,2.969-7.392c2.94-0.771,5.932,2.186,6.362,6.55C199.183,21.444,198.223,24.11,195.666,24.703z"/>
<path fill="#666666" d="M184.858,17.998c-0.24-3.902-2.877-7.23-7.928-7.23c-4.389,0-7.972,3.374-7.971,7.516
	c0,4.745,4.16,7.989,8.933,7.482C181.86,25.354,185.102,21.88,184.858,17.998z M178.522,24.703
	c-2.658,0.595-5.475-1.577-6.174-5.269c-0.775-4.059,0.503-6.735,3.012-7.392c2.967-0.771,5.988,2.186,6.428,6.55
	C182.076,21.444,181.112,24.11,178.522,24.703z"/>
</svg>
