<?xml version="1.0" encoding="utf-8"?>
<!-- Generator: Adobe Illustrator 16.0.0, SVG Export Plug-In . SVG Version: 6.00 Build 0)  -->
<!DOCTYPE svg PUBLIC "-//W3C//DTD SVG 1.1//EN" "http://www.w3.org/Graphics/SVG/1.1/DTD/svg11.dtd">
<svg version="1.1" id="Layer_1" xmlns="http://www.w3.org/2000/svg" xmlns:xlink="http://www.w3.org/1999/xlink" x="0px" y="0px"
	 width="256px" height="32px" viewBox="0 0 256 32" enable-background="new 0 0 256 32" xml:space="preserve">
<path fill="#2AAFDD" d="M132.834,9.14h4.4c4.48,0,7.3,3,7.3,7.2c0,4.221-2.819,7.2-7.3,7.2h-4.4V9.14z M137.234,21.77
	c3.3,0,5.41-1.97,5.41-5.43c0-3.44-2.11-5.43-5.41-5.43h-2.551V21.77H137.234z M145.544,18.609c0-2.79,1.931-5.25,4.83-5.25
	c2.94,0,4.829,2.07,4.829,5.25c0,0.141-0.02,0.341-0.02,0.341h-7.779c0.1,2.09,1.609,3.22,3.14,3.22c1.091,0,2.171-0.439,2.69-1.689
	l1.65,0.68c-0.58,1.41-2.031,2.689-4.301,2.689C147.555,23.859,145.544,21.59,145.544,18.609z M150.324,15.05
	c-1.37,0-2.45,0.92-2.82,2.37h5.711C153.164,16.561,152.434,15.05,150.324,15.05z M155.834,13.69h2.01l2.9,7.64h0.039l2.941-7.64
	h1.969l-4.02,9.85h-1.85L155.834,13.69z M165.824,18.609c0-2.79,1.93-5.25,4.83-5.25c2.939,0,4.83,2.07,4.83,5.25
	c0,0.141-0.02,0.341-0.02,0.341h-7.781c0.1,2.09,1.609,3.22,3.141,3.22c1.09,0,2.17-0.439,2.689-1.689l1.65,0.68
	c-0.58,1.41-2.029,2.689-4.301,2.689C167.834,23.859,165.824,21.59,165.824,18.609z M170.613,15.05c-1.369,0-2.449,0.92-2.82,2.37
	h5.711C173.443,16.561,172.725,15.05,170.613,15.05z M176.965,23.54V9.14h1.85v14.4H176.965z M190.434,18.609
	c0,3-2.109,5.25-5.07,5.25c-2.959,0-5.07-2.25-5.07-5.25c0-3,2.111-5.25,5.07-5.25C188.324,13.36,190.434,15.62,190.434,18.609z
	 M188.584,18.609c0-2.25-1.57-3.56-3.221-3.56c-1.648,0-3.219,1.31-3.219,3.56c0,2.25,1.57,3.561,3.219,3.561
	C187.023,22.17,188.584,20.859,188.584,18.609z M193.693,22.17h-0.08l0.08,1.37v4.34h-1.85v-14.2h1.77v1.37h0.08
	c0.561-0.9,1.791-1.69,3.361-1.69c2.488,0,4.689,2.23,4.689,5.25c0,3.021-2.189,5.25-4.689,5.25
	C195.484,23.859,194.254,23.08,193.693,22.17z M199.885,18.609c0-2.209-1.49-3.56-3.141-3.56s-3.141,1.31-3.141,3.56
	c0,2.25,1.49,3.561,3.141,3.561C198.404,22.17,199.885,20.82,199.885,18.609z M202.764,18.609c0-2.79,1.93-5.25,4.83-5.25
	c2.939,0,4.83,2.07,4.83,5.25c0,0.141-0.02,0.341-0.02,0.341h-7.781c0.102,2.09,1.611,3.22,3.141,3.22
	c1.09,0,2.17-0.439,2.689-1.689l1.65,0.68c-0.58,1.41-2.029,2.689-4.299,2.689C204.773,23.859,202.764,21.59,202.764,18.609z
	 M207.543,15.05c-1.369,0-2.449,0.92-2.809,2.37h5.709C210.385,16.561,209.664,15.05,207.543,15.05z M213.904,23.54v-9.85h1.77v1.61
	h0.08c0.4-1.13,1.83-1.85,2.859-1.85c0.602,0,1.01,0.08,1.391,0.24l-0.699,1.73c-0.262-0.1-0.58-0.14-0.99-0.14
	c-1.271,0-2.551,1.07-2.551,2.88v5.39h-1.859V23.54z M220.555,21.05l1.648-0.68c0.521,1.25,1.49,1.85,2.67,1.85
	c1.15,0,1.971-0.56,1.971-1.39c0-0.5-0.301-1.05-1.35-1.311l-1.99-0.479c-0.9-0.22-2.631-1.01-2.631-2.73
	c0-1.79,1.852-2.94,3.9-2.94c1.711,0,3.201,0.78,3.801,2.29l-1.609,0.66c-0.381-0.92-1.291-1.31-2.25-1.31
	c-1.051,0-1.951,0.46-1.951,1.271c0,0.62,0.52,0.97,1.311,1.149l1.949,0.461c1.951,0.459,2.711,1.67,2.711,2.879
	c0,1.75-1.57,3.101-3.881,3.101C222.484,23.859,221.145,22.45,220.555,21.05z M70.944,23.859c2.45,0,4.3-0.799,5.75-2.31
	c1.49-1.489,1.95-3.58,1.95-5.27c0-0.521-0.04-1.01-0.12-1.41h-7.58v2.25h5.39c-0.16,1.271-0.58,2.19-1.23,2.84
	c-0.78,0.78-2.01,1.649-4.16,1.649c-3.32,0-5.91-2.67-5.91-5.989c0-3.32,2.59-5.99,5.91-5.99c1.79,0,3.1,0.7,4.06,1.61l1.59-1.59
	c-1.35-1.29-3.14-2.27-5.65-2.27c-4.54,0-8.36,3.7-8.36,8.24C62.574,20.16,66.394,23.859,70.944,23.859z M84.764,13.24
	c-2.94,0-5.33,2.229-5.33,5.31c0,3.06,2.39,5.31,5.33,5.31s5.33-2.25,5.33-5.31C90.094,15.48,87.704,13.24,84.764,13.24z
	 M84.764,21.77c-1.61,0-3-1.33-3-3.22c0-1.909,1.39-3.22,3-3.22s3,1.311,3,3.22C87.764,20.439,86.374,21.77,84.764,21.77z
	 M96.394,13.24c-2.94,0-5.33,2.229-5.33,5.31c0,3.06,2.39,5.31,5.33,5.31s5.33-2.25,5.33-5.31
	C101.724,15.48,99.324,13.24,96.394,13.24z M96.394,21.77c-1.61,0-3-1.33-3-3.22c0-1.909,1.39-3.22,3-3.22c1.61,0,3,1.311,3,3.22
	C99.384,20.439,98.004,21.77,96.394,21.77z M110.654,13.57v0.86h-0.08c-0.52-0.62-1.53-1.19-2.79-1.19c-2.65,0-5.09,2.33-5.09,5.33
	c0,2.979,2.43,5.289,5.09,5.289c1.27,0,2.27-0.56,2.79-1.209h0.08v0.76c0,2.029-1.09,3.12-2.84,3.12c-1.43,0-2.31-1.03-2.67-1.89
	l-2.03,0.84c0.58,1.41,2.13,3.14,4.71,3.14c2.73,0,5.05-1.61,5.05-5.53v-9.53h-2.22V13.57z M107.984,21.77
	c-1.61,0-2.96-1.35-2.96-3.199c0-1.87,1.35-3.24,2.96-3.24c1.59,0,2.84,1.37,2.84,3.24C110.824,20.42,109.574,21.77,107.984,21.77z
	 M116.814,7.94h-2.33v15.6h2.33V7.94z M123.204,21.77c-1.19,0-2.03-0.539-2.57-1.609l7.1-2.94l-0.24-0.6
	c-0.44-1.19-1.79-3.38-4.54-3.38c-2.73,0-5.01,2.15-5.01,5.31c0,2.98,2.25,5.31,5.27,5.31c2.43,0,3.84-1.489,4.42-2.35l-1.81-1.21
	C125.214,21.189,124.394,21.77,123.204,21.77z M123.024,15.3c0.92,0,1.71,0.46,1.97,1.13l-4.75,1.97
	C120.194,16.34,121.834,15.3,123.024,15.3z M30.244,10.33l-2.73,4.73c-0.33,0.58-0.33,1.29,0,1.87l5.23,9.07h6.52L30.244,10.33
	L30.244,10.33z M30.854,9.28l3.27,5.67L39.284,6h-6.54L30.854,9.28z M42.744,26h6.54l1.89-3.27l-3.27-5.67L42.744,26z M54.514,15.06
	L49.284,6h-6.52l9.02,15.67l0,0l0,0l2.73-4.73C54.844,16.36,54.844,15.64,54.514,15.06z"/>
</svg>
