<?xml version="1.0" encoding="utf-8"?>
<!-- Generator: Adobe Illustrator 16.0.0, SVG Export Plug-In . SVG Version: 6.00 Build 0)  -->
<!DOCTYPE svg PUBLIC "-//W3C//DTD SVG 1.1//EN" "http://www.w3.org/Graphics/SVG/1.1/DTD/svg11.dtd">
<svg version="1.1"
	 id="svg2" xmlns:svg="http://www.w3.org/2000/svg" xmlns:dc="http://purl.org/dc/elements/1.1/" xmlns:rdf="http://www.w3.org/1999/02/22-rdf-syntax-ns#" xmlns:sodipodi="http://sodipodi.sourceforge.net/DTD/sodipodi-0.dtd" xmlns:inkscape="http://www.inkscape.org/namespaces/inkscape" xmlns:cc="http://creativecommons.org/ns#" inkscape:version="0.48.2 r9819" sodipodi:docname="–†¬†–°—ö–†¬†–°‚Ä¢–†¬†–†‚Ä†–†¬†–°‚Äò–†¬†–≤‚Äû‚Äì –†¬†–¢‚Äò–†¬†–°‚Ä¢–†¬†–°‚Äù–†–é–°‚Äú–†¬†–°–†¬†–í¬µ–†¬†–†‚Ä¶–†–é–≤–Ç—ô 1"
	 xmlns="http://www.w3.org/2000/svg" xmlns:xlink="http://www.w3.org/1999/xlink" x="0px" y="0px" width="241.911px" height="60px"
	 viewBox="0 0 241.911 60" enable-background="new 0 0 241.911 60" xml:space="preserve">
<g id="Layer_9">
</g>
<g id="Layer_10">
</g>
<g id="Layer_11">
</g>
<g id="Layer_11_copy">
</g>
<g id="Layer_8_copy">
</g>
<g id="Layer_18">
</g>
<g id="Layer_19">
</g>
<g id="Layer_13">
</g>
<g id="Layer_15">
</g>
<g id="Layer_25">
</g>
<g id="Layer_26">
</g>
<g id="Layer_27">
</g>
<g id="Layer_28">
</g>
<g id="Layer_29">
</g>
<g id="Layer_30">
</g>
<g id="Layer_31">
</g>
<g id="Layer_32">
</g>
<g id="Layer_33">
</g>
<g id="Layer_34">
</g>
<g id="Layer_36">
</g>
<g id="Layer_35">
</g>
<g id="g4210">
	<path id="path4212" inkscape:connector-curvature="0" fill="none" d="M29.964,37.486l-8.981,14.658
		c-0.505,0.821-0.128,1.496,0.838,1.496h10.532c0.965,0,2.171-0.673,2.679-1.492l4.756-7.684L29.964,37.486L29.964,37.486z"/>
	<path id="path4214" inkscape:connector-curvature="0" fill="none" d="M43.02,23.561l-7.986-12.902
		c-0.509-0.82-1.714-1.493-2.68-1.493H21.821c-0.966,0-1.343,0.674-0.838,1.497L31.21,27.349l5.748-8.094L43.02,23.561L43.02,23.561
		z"/>
</g>
<linearGradient id="path4221_1_" gradientUnits="userSpaceOnUse" x1="1405.9224" y1="2138.0479" x2="1417.4042" y2="2145.2224" gradientTransform="matrix(1 0 0 1 -1379.959 -2096.9277)">
	<stop  offset="0.54" style="stop-color:#0A985C"/>
	<stop  offset="0.54" style="stop-color:#F6C25B"/>
</linearGradient>
<path id="path4221" inkscape:connector-curvature="0" fill="url(#path4221_1_)" d="M39.24,41.271c-0.875-1.47-2.994-5.244-4.58-8.06
	l-1.788-3.149c0.411,0.832,0.382,2.061-0.09,2.833L20.989,52.143c-0.504,0.82-0.127,1.496,0.839,1.496h10.531
	c0.965,0,2.171-0.673,2.68-1.492l4.764-7.691C39.701,44.593,40.365,43.163,39.24,41.271L39.24,41.271z"/>
<g id="g4223">
	<path id="path4225" inkscape:connector-curvature="0" fill="none" d="M29.97,37.484l-8.981,14.658
		c-0.504,0.822-0.126,1.496,0.839,1.496H32.36c0.966,0,2.171-0.672,2.68-1.492l4.758-7.684L29.97,37.484L29.97,37.484z"/>
	<path id="path4227" inkscape:connector-curvature="0" fill="none" d="M43.026,23.559l-7.987-12.903
		c-0.507-0.821-1.713-1.492-2.678-1.492H21.828c-0.966,0-1.343,0.674-0.839,1.497l10.227,16.688l5.75-8.094L43.026,23.559
		L43.026,23.559z"/>
	<path id="path4229" inkscape:connector-curvature="0" opacity="0.09" fill="#010101" enable-background="new    " d="
		M46.957,32.896c0.51-0.821,0.51-2.166,0.001-2.988l-3.93-6.35l-6.062-4.306l-5.75,8.095l1.567,2.557
		c0.505,0.823,0.505,2.17,0,2.993l-2.813,4.589l9.827,6.979L46.957,32.896L46.957,32.896z"/>
</g>
<linearGradient id="path4236_1_" gradientUnits="userSpaceOnUse" x1="1409.2339" y1="2124.5654" x2="1421.0088" y2="2117.2075" gradientTransform="matrix(1 0 0 1 -1379.959 -2096.9277)">
	<stop  offset="0.57" style="stop-color:#5586C5"/>
	<stop  offset="0.57" style="stop-color:#D9423E"/>
</linearGradient>
<path id="path4236" inkscape:connector-curvature="0" fill="url(#path4236_1_)" d="M46.955,29.912L35.039,10.659
	c-0.508-0.821-1.714-1.492-2.68-1.492H21.824c-0.965,0-1.341,0.673-0.837,1.497L32.78,29.907l1.881,3.308
	c1.584,2.812,3.705,6.59,4.579,8.059c1.315,2.214,0.183,3.793,0.692,2.972L46.955,32.9C47.463,32.078,47.463,30.734,46.955,29.912z
	 M32.794,29.93c0.012,0.021,0.027,0.042,0.042,0.07l0,0c0,0.002,0.001,0.002,0.003,0.005C32.823,29.976,32.808,29.952,32.794,29.93z
	 M33.636,31.396c0.039,0.069,0.081,0.146,0.125,0.219C33.717,31.542,33.675,31.468,33.636,31.396z M33.625,31.369
	c0.065,0.115,0.133,0.232,0.201,0.355C33.757,31.602,33.689,31.482,33.625,31.369z">
	
		<namedview  showguides="true" pageshadow="2" pageopacity="0.0" cx="1267.4286" zoom="0.0875" window-height="712" window-x="-4" cy="885.96512" window-width="1280" borderopacity="1.0" showgrid="false" document-units="px" window-y="-4" current-layer="layer1" guide-bbox="true" bordercolor="#666666" pagecolor="#ffffff">
		<guide  id="guide5732" position="-3095.1074,2723.3713" orientation="0,1"></guide>
	</namedview>
</path>
<g enable-background="new    ">
	<path fill="#4E4E4E" d="M72.033,28.476h10.425v13.019c-2.832,0.97-5.942,1.454-9.335,1.454c-3.724,0-6.601-1.079-8.633-3.237
		c-2.031-2.159-3.047-5.237-3.047-9.236c0-3.9,1.111-6.934,3.337-9.104c2.225-2.169,5.342-3.254,9.351-3.254
		c1.521,0,2.955,0.143,4.305,0.43s2.525,0.65,3.528,1.09l-2.066,5.123c-1.74-0.858-3.651-1.29-5.733-1.29
		c-1.905,0-3.379,0.62-4.42,1.859c-1.04,1.239-1.561,3.011-1.561,5.312c0,2.258,0.471,3.979,1.414,5.161
		c0.941,1.188,2.299,1.776,4.071,1.776c0.97,0,1.862-0.093,2.677-0.28v-3.782h-4.312L72.033,28.476L72.033,28.476z"/>
	<path fill="#4E4E4E" d="M105.89,30.03c0,4.032-1.11,7.137-3.33,9.319c-2.219,2.183-5.34,3.271-9.36,3.271h-7.815V18.464h8.36
		c3.877,0,6.871,0.991,8.98,2.974C104.834,23.421,105.89,26.284,105.89,30.03z M99.114,30.261c0-2.214-0.438-3.854-1.312-4.924
		c-0.875-1.068-2.206-1.603-3.99-1.603h-1.9v13.532h1.454c1.983,0,3.438-0.574,4.363-1.728
		C98.653,34.389,99.114,32.629,99.114,30.261z"/>
	<path fill="#4E4E4E" d="M117.92,28.476h10.425v13.019c-2.831,0.97-5.943,1.454-9.335,1.454c-3.723,0-6.601-1.079-8.633-3.237
		c-2.032-2.159-3.048-5.237-3.048-9.236c0-3.9,1.113-6.934,3.337-9.104c2.225-2.169,5.343-3.254,9.351-3.254
		c1.521,0,2.955,0.143,4.306,0.43c1.35,0.287,2.524,0.65,3.527,1.09l-2.064,5.123c-1.74-0.858-3.652-1.29-5.733-1.29
		c-1.905,0-3.379,0.62-4.419,1.859c-1.04,1.239-1.561,3.011-1.561,5.312c0,2.258,0.471,3.979,1.412,5.161
		c0.941,1.188,2.299,1.776,4.072,1.776c0.97,0,1.862-0.093,2.677-0.28v-3.782h-4.312L117.92,28.476L117.92,28.476z"/>
</g>
<g enable-background="new    ">
	<path fill="#4E4E4E" d="M142.054,42.468V19.276h3.269l7.432,11.733c1.721,2.718,3.062,5.161,4.164,7.535l0.068-0.034
		c-0.275-3.097-0.344-5.918-0.344-9.531v-9.703h2.822v23.191h-3.028L149.073,30.7c-1.617-2.581-3.165-5.23-4.335-7.742l-0.103,0.034
		c0.172,2.925,0.24,5.712,0.24,9.565v9.91H142.054z"/>
	<path fill="#4E4E4E" d="M173.809,42.468l-0.24-2.099h-0.104c-0.929,1.308-2.719,2.478-5.092,2.478
		c-3.373,0-5.094-2.375-5.094-4.783c0-4.025,3.579-6.228,10.014-6.193v-0.345c0-1.376-0.379-3.854-3.785-3.854
		c-1.549,0-3.166,0.481-4.336,1.239l-0.688-1.996c1.377-0.895,3.372-1.479,5.471-1.479c5.093,0,6.332,3.476,6.332,6.812v6.229
		c0,1.445,0.068,2.855,0.274,3.991H173.809z M173.362,33.969c-3.303-0.068-7.053,0.517-7.053,3.751c0,1.961,1.307,2.89,2.855,2.89
		c2.168,0,3.544-1.376,4.025-2.787c0.104-0.31,0.172-0.653,0.172-0.963V33.969z"/>
	<path fill="#4E4E4E" d="M184.68,21.031v4.783h4.336v2.305h-4.336v8.98c0,2.065,0.585,3.234,2.271,3.234
		c0.791,0,1.376-0.103,1.754-0.206l0.139,2.271c-0.586,0.24-1.515,0.412-2.685,0.412c-1.411,0-2.546-0.447-3.269-1.272
		c-0.86-0.895-1.17-2.374-1.17-4.336v-9.084h-2.581v-2.305h2.581v-3.992L184.68,21.031z"/>
	<path fill="#4E4E4E" d="M201.642,42.468l-0.241-2.099h-0.104c-0.929,1.308-2.718,2.478-5.092,2.478
		c-3.372,0-5.093-2.375-5.093-4.783c0-4.025,3.579-6.228,10.013-6.193v-0.345c0-1.376-0.378-3.854-3.785-3.854
		c-1.548,0-3.165,0.481-4.335,1.239l-0.688-1.996c1.377-0.895,3.373-1.479,5.471-1.479c5.094,0,6.332,3.476,6.332,6.812v6.229
		c0,1.445,0.068,2.855,0.275,3.991H201.642z M201.195,33.969c-3.304-0.068-7.054,0.517-7.054,3.751c0,1.961,1.307,2.89,2.855,2.89
		c2.168,0,3.545-1.376,4.025-2.787c0.104-0.31,0.173-0.653,0.173-0.963V33.969z"/>
	<path fill="#4E4E4E" d="M209.002,18.038h3.027v24.43h-3.027V18.038z"/>
</g>
</svg>
